<svg xmlns="http://www.w3.org/2000/svg" width="486" height="322" viewBox="0 0 486 322">
  <g id="Group_99911" data-name="Group 99911" transform="translate(23849 16110.533)">
    <path id="Rectangle_160086" data-name="Rectangle 160086" d="M10,0H486a0,0,0,0,1,0,0V322a0,0,0,0,1,0,0H10A10,10,0,0,1,0,312V10A10,10,0,0,1,10,0Z" transform="translate(-23849 -16110.533)" fill="#247cff"/>
    <path id="Union_33" data-name="Union 33" d="M33.121,207.616l83.207-37.969-.808,16.157-82.4,37.161ZM0,205.193V83.208l15.349,6.463v119.56Zm33.121-55.741L75.937,130.87V111.483l-42.816,18.58V89.671L116.329,52.51l-.808,94.518-82.4,39.584Zm46.047-19.388,10.5-8.078V112.29l-10.5-.808ZM92.9,120.369l6.463-7.271L92.9,112.29ZM8.885,82.4h0A524.841,524.841,0,0,0,28.274,21.812L31.5,33.122,8.886,82.4h0C21.319,61.281,40.48,26.218,43.623,12.926l3.232,12.118L8.887,82.4h0C29.033,56.257,66.616,11.7,67.858.808l2.424,17.772L8.893,82.393C36.443,56.454,88.094,13.691,89.67,0l.808,21L8.888,82.4l0,0c35.139-21.987,97.841-62.778,100.98-74.322-.233,6.033,1.04,19.01.808,25.044L8.885,82.4Zm0,0v0h0Zm0,0h0Z" transform="translate(-23498 -16049.645)" fill="rgba(255,255,255,0.06)" stroke="rgba(0,0,0,0)" stroke-width="1"/>
  </g>
</svg>
