<svg xmlns="http://www.w3.org/2000/svg" xmlns:xlink="http://www.w3.org/1999/xlink" width="26" height="26" viewBox="0 0 26 26">
  <defs>
    <clipPath id="clip-path">
      <rect id="Rectangle_6897" data-name="Rectangle 6897" width="18" height="18" transform="translate(0 0)" fill="#a4a4a4" stroke="#707070" stroke-width="1"/>
    </clipPath>
  </defs>
  <g id="Group_99903" data-name="Group 99903" transform="translate(-24 -97)">
    <circle id="Ellipse_749" data-name="Ellipse 749" cx="13" cy="13" r="13" transform="translate(24 97)" fill="#e8f2ff"/>
    <g id="Mask_Group_188" data-name="Mask Group 188" transform="translate(28 101)" clip-path="url(#clip-path)">
      <g id="Message" transform="translate(2 3)">
        <path id="Message-2" data-name="Message" d="M10.457,12.6H3.542A3.542,3.542,0,0,1,0,9.065V3.535A3.542,3.542,0,0,1,3.542,0h6.916a3.564,3.564,0,0,1,2.506,1.037A3.508,3.508,0,0,1,14,3.535v5.53A3.543,3.543,0,0,1,10.457,12.6ZM2.824,3.672a.513.513,0,0,0-.374.157.535.535,0,0,0-.05.7l.092.091L5.677,7.105a2.19,2.19,0,0,0,1.365.476,2.226,2.226,0,0,0,1.371-.476l3.158-2.527.056-.056a.542.542,0,0,0-.008-.7.582.582,0,0,0-.37-.182h-.03a.532.532,0,0,0-.364.141L7.7,6.3a1.1,1.1,0,0,1-.7.252A1.115,1.115,0,0,1,6.3,6.3L3.15,3.78A.544.544,0,0,0,2.824,3.672Z" transform="translate(0)" fill="#247cff"/>
      </g>
    </g>
  </g>
</svg>
