<svg xmlns="http://www.w3.org/2000/svg" xmlns:xlink="http://www.w3.org/1999/xlink" width="26" height="26" viewBox="0 0 26 26">
  <defs>
    <clipPath id="clip-path">
      <rect id="Rectangle_6897" data-name="Rectangle 6897" width="18.69" height="18.69" fill="#fff" stroke="#707070" stroke-width="1"/>
    </clipPath>
  </defs>
  <g id="Group_99902" data-name="Group 99902" transform="translate(-24 -50)">
    <circle id="Ellipse_749" data-name="Ellipse 749" cx="13" cy="13" r="13" transform="translate(24 50)" fill="#e8f2ff"/>
    <g id="Mask_Group_187" data-name="Mask Group 187" transform="translate(27.999 54)" clip-path="url(#clip-path)">
      <g id="Location" transform="translate(3.115 2.336)">
        <path id="Location-2" data-name="Location" d="M6.011,14.017a.965.965,0,0,1-.519-.173,15.156,15.156,0,0,1-3.916-3.6A7.24,7.24,0,0,1,0,5.83,5.7,5.7,0,0,1,1.769,1.706,6.055,6.055,0,0,1,6,0a5.93,5.93,0,0,1,6.012,5.83,7.244,7.244,0,0,1-1.576,4.411,15.443,15.443,0,0,1-3.916,3.6A.938.938,0,0,1,6.011,14.017ZM6,4.049A1.973,1.973,0,0,0,4.025,6.011a1.893,1.893,0,0,0,.581,1.37,2,2,0,0,0,1.4.56,1.962,1.962,0,0,0,1.988-1.93,1.935,1.935,0,0,0-.585-1.383A1.984,1.984,0,0,0,6,4.049Z" transform="translate(0 0)" fill="#247cff"/>
      </g>
    </g>
  </g>
</svg>
